<?xml version="1.0" encoding="utf-8"?>
<svg width="30px" height="30px" viewBox="0 0 30 30" version="1.1" xmlns:xlink="http://www.w3.org/1999/xlink" xmlns="http://www.w3.org/2000/svg">
  <defs>
    <path d="M9.75 0C9.75 -8.52372e-07 9.75 -8.52372e-07 9.75 -8.52372e-07C11.0646 0.00629243 12.3869 -0.0128239 13.6921 0.173152C14.3867 0.272132 15.0765 0.43175 15.7286 0.694102C16.164 0.869252 16.5811 1.09124 16.9625 1.36535C17.2326 1.55954 17.4841 1.77957 17.7116 2.02242C19.0871 3.49089 19.3973 5.58733 19.4723 7.51891C19.4825 7.78049 19.4898 8.0422 19.4931 8.30396C19.4991 8.78594 19.4977 9.26799 19.5 9.75C19.5 9.75 19.5 9.75 19.5 9.75C19.4937 11.0646 19.5128 12.3869 19.3268 13.6921C19.2279 14.3867 19.0682 15.0765 18.8059 15.7286C18.6307 16.164 18.4088 16.5811 18.1347 16.9625C17.9405 17.2327 17.7204 17.4841 17.4776 17.7116C16.0091 19.0871 13.9127 19.3973 11.9811 19.4723C11.7195 19.4825 11.4578 19.4898 11.196 19.4931C10.7141 19.4991 10.232 19.4977 9.75 19.5C9.75 19.5 9.75 19.5 9.75 19.5C8.43541 19.4937 7.11307 19.5128 5.80794 19.3268C5.11333 19.2279 4.42354 19.0683 3.7714 18.8059C3.33602 18.6307 2.91887 18.4088 2.53752 18.1347C2.26735 17.9405 2.01587 17.7204 1.78839 17.4776C0.412897 16.0091 0.102672 13.9127 0.0276947 11.9811C0.0175414 11.7195 0.0101729 11.4578 0.00692368 11.196C0.000940674 10.7141 0.00230761 10.232 -4.26186e-07 9.75C-4.26186e-07 9.75 -4.26186e-07 9.75 -4.26186e-07 9.75C0.00230665 9.26805 0.000939423 8.78606 0.00692081 8.30414C0.0101697 8.04238 0.0175365 7.78065 0.027689 7.51906C0.102657 5.58746 0.412856 3.49098 1.78834 2.02247C2.01582 1.77961 2.26729 1.55959 2.53746 1.36539C2.91881 1.09127 3.33595 0.869285 3.77132 0.694132C4.42345 0.431775 5.11324 0.272152 5.80785 0.173166C7.113 -0.0128264 8.43538 0.00629442 9.75 0Z" transform="translate(7.8 0)" id="path_1" />
    <path d="M9.75 0C9.75 -8.52372e-07 9.75 -8.52372e-07 9.75 -8.52372e-07C11.0646 0.00629243 12.3869 -0.0128239 13.6921 0.173152C14.3867 0.272132 15.0765 0.43175 15.7286 0.694102C16.164 0.869252 16.5811 1.09124 16.9625 1.36535C17.2326 1.55954 17.4841 1.77957 17.7116 2.02242C19.0871 3.49089 19.3973 5.58733 19.4723 7.51891C19.4825 7.78049 19.4898 8.0422 19.4931 8.30396C19.4991 8.78594 19.4977 9.26799 19.5 9.75C19.5 9.75 19.5 9.75 19.5 9.75C19.4937 11.0646 19.5128 12.3869 19.3268 13.6921C19.2279 14.3867 19.0682 15.0765 18.8059 15.7286C18.6307 16.164 18.4088 16.5811 18.1347 16.9625C17.9405 17.2327 17.7204 17.4841 17.4776 17.7116C16.0091 19.0871 13.9127 19.3973 11.9811 19.4723C11.7195 19.4825 11.4578 19.4898 11.196 19.4931C10.7141 19.4991 10.232 19.4977 9.75 19.5C9.75 19.5 9.75 19.5 9.75 19.5C8.43541 19.4937 7.11307 19.5128 5.80794 19.3268C5.11333 19.2279 4.42354 19.0683 3.7714 18.8059C3.33602 18.6307 2.91887 18.4088 2.53752 18.1347C2.26735 17.9405 2.01587 17.7204 1.78839 17.4776C0.412897 16.0091 0.102672 13.9127 0.0276947 11.9811C0.0175414 11.7195 0.0101729 11.4578 0.00692368 11.196C0.000940674 10.7141 0.00230761 10.232 -4.26186e-07 9.75C-4.26186e-07 9.75 -4.26186e-07 9.75 -4.26186e-07 9.75C0.00230665 9.26805 0.000939423 8.78606 0.00692081 8.30414C0.0101697 8.04238 0.0175365 7.78065 0.027689 7.51906C0.102657 5.58746 0.412856 3.49098 1.78834 2.02247C2.01582 1.77961 2.26729 1.55959 2.53746 1.36539C2.91881 1.09127 3.33595 0.869285 3.77132 0.694132C4.42345 0.431775 5.11324 0.272152 5.80785 0.173166C7.113 -0.0128264 8.43538 0.00629442 9.75 0Z" transform="translate(0 7.8)" id="path_2" />
    <clipPath id="clip_1">
      <use xlink:href="#path_1" />
    </clipPath>
    <clipPath id="clip_2">
      <use xlink:href="#path_2" />
    </clipPath>
  </defs>
  <g id="icon-custom-merge-ds" transform="translate(0.75 0.75)">
    <g id="Rectangle">
      <g clip-path="url(#clip_1)">
        <use xlink:href="#path_1" fill="none" stroke="#006AC9" stroke-width="3" />
      </g>
    </g>
    <g id="Rectangle">
      <g clip-path="url(#clip_2)">
        <use xlink:href="#path_2" fill="none" stroke="#006AC9" stroke-width="3" />
      </g>
    </g>
    <path d="M3.91069 0L0 3.91069" transform="translate(9.1 9.160942)" id="Path-4" fill="none" fill-rule="evenodd" stroke="#006AC9" stroke-width="1.5" stroke-linecap="round" />
    <path d="M3.91069 0L0 3.91069" transform="translate(14.3 14.360942)" id="Path-4" fill="none" fill-rule="evenodd" stroke="#006AC9" stroke-width="1.5" stroke-linecap="round" />
    <path d="M5.85 0.589058L0.65 5.78906" transform="translate(10.4 10.460941)" id="Path-4" fill="none" fill-rule="evenodd" stroke="#006AC9" stroke-width="1.5" stroke-linecap="round" />
  </g>
</svg>