<?xml version="1.0" encoding="utf-8"?>
<svg width="30px" height="30px" viewBox="0 0 30 30" version="1.1" xmlns:xlink="http://www.w3.org/1999/xlink" xmlns="http://www.w3.org/2000/svg">
  <defs>
    <path d="M13.65 0C13.65 -1.19332e-06 13.65 -1.19332e-06 13.65 -1.19332e-06C14.5602 0.00272226 15.4704 0.000609977 16.3805 0.00816917C16.7825 0.0115074 17.1844 0.0204158 17.5861 0.03269C17.8982 0.0422234 18.2101 0.0558692 18.5218 0.0735874C20.7414 0.199762 23.1775 0.565669 24.8703 2.14376C25.168 2.42134 25.4357 2.73048 25.6695 3.0636C26.0051 3.54168 26.2702 4.06657 26.4759 4.61258C26.8823 5.69103 27.0684 6.8425 27.1691 7.98611C27.3347 9.86683 27.2944 11.7656 27.3 13.65C27.3 13.65 27.3 13.65 27.3 13.65C27.2973 14.5602 27.2994 15.4704 27.2918 16.3805C27.2885 16.7825 27.2796 17.1844 27.2673 17.5861C27.2578 17.8982 27.2441 18.2101 27.2264 18.5218C27.1002 20.7414 26.7343 23.1775 25.1562 24.8703C24.8787 25.168 24.5695 25.4357 24.2364 25.6695C23.7583 26.0051 23.2334 26.2701 22.6874 26.4759C21.609 26.8823 20.4575 27.0684 19.3139 27.1691C17.4332 27.3346 15.5344 27.2944 13.65 27.3C13.65 27.3 13.65 27.3 13.65 27.3C12.7398 27.2973 11.8296 27.2994 10.9195 27.2918C10.5175 27.2885 10.1156 27.2796 9.71388 27.2673C9.40184 27.2578 9.08989 27.2441 8.77821 27.2264C6.55865 27.1002 4.12249 26.7343 2.42973 25.1562C2.132 24.8787 1.86433 24.5695 1.63049 24.2364C1.29488 23.7583 1.02985 23.2334 0.824082 22.6874C0.417663 21.609 0.231586 20.4575 0.130913 19.3139C-0.0346494 17.4332 0.00563887 15.5344 -5.9666e-07 13.65C-5.9666e-07 13.65 -5.9666e-07 13.65 -5.9666e-07 13.65C0.00272266 12.7398 0.000610132 11.8296 0.00816917 10.9195C0.0115074 10.5175 0.0204158 10.1156 0.03269 9.71389C0.0422233 9.40185 0.0558695 9.0899 0.0735874 8.77822C0.199761 6.55866 0.565663 4.1225 2.14376 2.42974C2.42133 2.132 2.73048 1.86433 3.0636 1.63049C3.54167 1.29488 4.06656 1.02985 4.61257 0.824084C5.69102 0.417666 6.84249 0.231587 7.9861 0.130913C9.86682 -0.0346507 11.7656 0.00563969 13.65 0Z" id="path_1" />
    <clipPath id="clip_1">
      <use xlink:href="#path_1" />
    </clipPath>
  </defs>
  <g id="icon-custom-add-ds" transform="translate(0.75 0.75)">
    <g id="Rectangle">
      <g clip-path="url(#clip_1)">
        <use xlink:href="#path_1" fill="none" stroke="#006AC9" stroke-width="3" />
      </g>
    </g>
    <path d="M0 0.65L11.7 0.65" transform="translate(7.8 13)" id="Path-3" fill="none" fill-rule="evenodd" stroke="#006AC9" stroke-width="1.5" stroke-linecap="round" />
    <path d="M0.65 0L0.65 11.7" transform="translate(13 7.8)" id="Path-3" fill="none" fill-rule="evenodd" stroke="#006AC9" stroke-width="1.5" stroke-linecap="round" />
  </g>
</svg>