<svg xmlns="http://www.w3.org/2000/svg" width="58.52" height="59.995" viewBox="0 0 58.52 59.995">
  <g id="Group_7" data-name="Group 7" transform="translate(-2.605 -2.239)">
    <path id="Path_9" data-name="Path 9" d="M18.549,3.807a2,2,0,0,0-3.512-.649L1.727,20.671a2,2,0,0,0,1,3.12l22.046,6.851a1,1,0,0,0,1.257-1.235Z" transform="matrix(-0.839, -0.545, 0.545, -0.839, 45.517, 64.936)" fill="#e2f1ff"/>
    <ellipse id="Oval" cx="2.5" cy="4.5" rx="2.5" ry="4.5" transform="matrix(-0.174, 0.985, -0.985, -0.174, 16.809, 33.965)" fill="#006ac9"/>
    <path id="Path_9-2" data-name="Path 9" d="M6.612.832A2,2,0,0,0,4.582.4L2.864,1a.885.885,0,0,0,.089,1.7L7.3,3.723a.874.874,0,0,0,.8-1.487Z" transform="translate(0.334 17)" fill="#00bdff"/>
    <g id="Group_6" data-name="Group 6" transform="translate(11.47 0.376) rotate(8)">
      <rect id="Rectangle" width="3" height="16" rx="1" transform="translate(19 13)" fill="#ffdd72"/>
      <rect id="Rectangle-2" data-name="Rectangle" width="3" height="3" rx="1" transform="translate(19 31)" fill="#ffdd72"/>
      <ellipse id="Oval-2" data-name="Oval" cx="19" cy="20" rx="19" ry="20" transform="translate(9.026 0.613) rotate(13)" fill="#7bc741"/>
      <path id="Path_10" data-name="Path 10" d="M0,6.256,6.523,13.31,19.91,0" transform="translate(12.672 17.697)" fill="none" stroke="#c5f0a4" stroke-linecap="round" stroke-miterlimit="10" stroke-width="3"/>
    </g>
  </g>
</svg>
