<?xml version="1.0" encoding="utf-8"?>
<svg width="68px" height="68px" viewBox="0 0 68 68" version="1.1" xmlns:xlink="http://www.w3.org/1999/xlink" xmlns="http://www.w3.org/2000/svg">
  <g id="Group-7" transform="translate(0.5 0.5)">
    <path d="M15.087 0.845318L3.94034 6.82988Q3.87699 6.86389 3.81625 6.90237Q3.75551 6.94084 3.69769 6.98358Q3.63987 7.02631 3.58528 7.0731Q3.53068 7.11988 3.47958 7.17046Q3.42848 7.22104 3.38115 7.27516Q3.33382 7.32929 3.2905 7.38667Q3.24718 7.44405 3.2081 7.5044Q3.16901 7.56475 3.13436 7.62775Q3.09971 7.69075 3.06968 7.75607Q3.03964 7.8214 3.01438 7.88871Q2.98912 7.95603 2.96876 8.02498Q2.94839 8.09394 2.93304 8.16418Q2.91768 8.23442 2.90741 8.30558Q2.89715 8.37674 2.89202 8.44846Q2.88689 8.52017 2.88692 8.59207Q2.88696 8.66397 2.89216 8.73568Q2.89736 8.80739 2.9077 8.87855Q2.91803 8.9497 2.93346 9.01992Q2.94888 9.09015 2.96931 9.15908Q2.98974 9.22802 3.01507 9.29531Q3.0404 9.3626 3.0705 9.42789Q3.10059 9.49319 3.1353 9.55616Q3.17002 9.61912 3.20916 9.67943Q3.24831 9.73974 3.29168 9.79708Q3.33506 9.85442 3.38244 9.9085Q3.42983 9.96257 3.48097 10.0131Q3.53212 10.0636 3.58676 10.1104Q3.64141 10.1571 3.69927 10.1998Q3.75713 10.2425 3.8179 10.2809Q3.87868 10.3193 3.94206 10.3532Q4.00544 10.3872 4.0711 10.4165Q4.13675 10.4458 4.20434 10.4703L27.5386 18.9335Q27.5757 18.9469 27.6136 18.9574Q27.6516 18.9679 27.6903 18.9753Q27.729 18.9828 27.7682 18.9872Q27.8074 18.9915 27.8467 18.9928Q27.8861 18.9941 27.9255 18.9923Q27.9649 18.9905 28.004 18.9855Q28.0431 18.9806 28.0816 18.9726Q28.1202 18.9646 28.1581 18.9536Q28.1959 18.9426 28.2328 18.9287Q28.2696 18.9148 28.3053 18.8979Q28.3409 18.8811 28.3751 18.8616Q28.4093 18.842 28.4419 18.8198Q28.4745 18.7976 28.5052 18.7729Q28.5359 18.7482 28.5646 18.7212Q28.5932 18.6942 28.6197 18.665Q28.6461 18.6357 28.6702 18.6045Q28.6943 18.5733 28.7158 18.5403Q28.7374 18.5073 28.7562 18.4727Q28.7751 18.4382 28.7912 18.4022Q28.8073 18.3662 28.8205 18.3291Q28.8337 18.2919 28.8439 18.2539Q28.8542 18.2158 28.8614 18.1771Q28.8686 18.1383 28.8727 18.0992Q28.8769 18.06 28.8779 18.0206Q28.8789 17.9812 28.8768 17.9418Q28.8748 17.9025 28.8696 17.8634Q28.8644 17.8243 28.8562 17.7858Q28.848 17.7473 28.8368 17.7095Q28.8255 17.6717 28.8113 17.6349Q28.7972 17.5982 28.7801 17.5626Q28.7631 17.5271 28.7433 17.493Q28.7235 17.4589 28.7011 17.4265L17.6772 1.47026Q17.6254 1.39523 17.5669 1.32522Q17.5085 1.25522 17.4439 1.19083Q17.3793 1.12644 17.3091 1.0682Q17.2389 1.00996 17.1637 0.958356Q17.0885 0.906749 17.0089 0.862203Q16.9294 0.817657 16.8461 0.780543Q16.7627 0.743428 16.6764 0.714054Q16.5901 0.68468 16.5014 0.663289Q16.4128 0.641899 16.3225 0.628671Q16.2323 0.615442 16.1412 0.610485Q16.0501 0.605528 15.959 0.608884Q15.8679 0.61224 15.7774 0.623881Q15.687 0.635523 15.5979 0.655352Q15.5089 0.675181 15.4221 0.703034Q15.3352 0.730887 15.2513 0.766532Q15.1673 0.802177 15.087 0.845318L15.087 0.845318Z" transform="matrix(0.76604444 -0.6427876 0.6427876 0.76604444 29.421875 47.099365)" id="Path-9" fill="#E2F1FF" fill-rule="evenodd" stroke="none" />
    <path d="M3 6C4.65685 6 6 4.65685 6 3C6 1.34315 4.65685 0 3 0C1.34315 0 0 1.34315 0 3C0 4.65685 1.34315 6 3 6Z" transform="matrix(-0.1736482 0.9848077 -0.9848077 -0.1736482 11.759766 25.92871)" id="Oval" fill="#006AC9" fill-rule="evenodd" stroke="none" />
    <path d="M4.58298 0.399893L2.86098 1.00107Q2.8274 1.01279 2.79488 1.02717Q2.76235 1.04155 2.73109 1.0585Q2.69983 1.07545 2.67003 1.09485Q2.64023 1.11426 2.61208 1.136Q2.58394 1.15773 2.55763 1.18166Q2.53133 1.20559 2.50703 1.23156Q2.48273 1.25752 2.46059 1.28535Q2.43846 1.31319 2.41863 1.34271Q2.39881 1.37223 2.38142 1.40325Q2.36403 1.43427 2.34919 1.46659Q2.33435 1.4989 2.32215 1.53231Q2.30996 1.56571 2.30048 1.59999Q2.29101 1.63427 2.28432 1.66919Q2.27764 1.70412 2.27378 1.73947Q2.26992 1.77482 2.26891 1.81037Q2.2679 1.84592 2.26976 1.88143Q2.27161 1.91694 2.27631 1.95219Q2.28101 1.98744 2.28853 2.0222Q2.29605 2.05696 2.30634 2.091Q2.31662 2.12504 2.32961 2.15814Q2.3426 2.19125 2.35821 2.2232Q2.37381 2.25515 2.39194 2.28575Q2.41006 2.31635 2.43059 2.34539Q2.45111 2.37443 2.4739 2.40173Q2.49669 2.42903 2.5216 2.4544Q2.54651 2.47978 2.57338 2.50308Q2.60025 2.52637 2.62891 2.54743Q2.65756 2.56849 2.68782 2.58718Q2.71807 2.60587 2.74973 2.62207Q2.78139 2.63827 2.81424 2.65187Q2.8471 2.66547 2.88094 2.67639Q2.91479 2.68731 2.9494 2.69547L7.3079 3.72338Q7.34268 3.73158 7.378 3.73692Q7.41333 3.74225 7.44897 3.74467Q7.48462 3.7471 7.52034 3.74661Q7.55606 3.74611 7.59163 3.7427Q7.62719 3.73929 7.66236 3.73298Q7.69752 3.72667 7.73206 3.71751Q7.76659 3.70835 7.80026 3.6964Q7.83393 3.68445 7.86651 3.66979Q7.89909 3.65512 7.93036 3.63785Q7.96163 3.62057 7.99138 3.6008Q8.02114 3.58102 8.04918 3.55888Q8.07722 3.53674 8.10336 3.51239Q8.12949 3.48803 8.15355 3.46162Q8.17761 3.4352 8.19943 3.40691Q8.22125 3.37862 8.24068 3.34865Q8.26012 3.31867 8.27704 3.2872Q8.29396 3.25573 8.30825 3.22299Q8.32254 3.19025 8.33411 3.15644Q8.34568 3.12264 8.35445 3.08801Q8.36321 3.05337 8.36912 3.01814Q8.37503 2.9829 8.37803 2.9473Q8.38104 2.9117 8.38113 2.87597Q8.38122 2.84025 8.37839 2.80463Q8.37555 2.76902 8.36982 2.73376Q8.36409 2.69849 8.35549 2.66381Q8.3469 2.62914 8.33549 2.59528Q8.32409 2.56142 8.30996 2.5286Q8.29583 2.49579 8.27907 2.46424Q8.26231 2.43269 8.24302 2.40262Q8.22373 2.37254 8.20205 2.34415Q8.18037 2.31575 8.15644 2.28922Q8.13252 2.26269 8.1065 2.2382L6.61191 0.83152Q6.5125 0.737955 6.40129 0.658774Q6.29008 0.579593 6.16914 0.516267Q6.0482 0.45294 5.91977 0.406644Q5.79134 0.360347 5.65781 0.331941Q5.52428 0.303534 5.38813 0.293545Q5.25198 0.283556 5.11573 0.292169Q4.97949 0.300783 4.84568 0.32784Q4.71187 0.354896 4.58298 0.399893Z" transform="translate(13.28418 43.96411)" id="Path-9" fill="#8CABCD" fill-rule="evenodd" stroke="none" />
    <path d="M35.9133 4.9366L44.7358 42.6028Q44.7588 42.7009 44.7752 42.8004Q44.7915 42.8998 44.8011 43.0001Q44.8108 43.1005 44.8136 43.2012Q44.8165 43.3019 44.8126 43.4026Q44.8087 43.5033 44.7981 43.6035Q44.7874 43.7037 44.7701 43.803Q44.7527 43.9023 44.7288 44.0002Q44.7048 44.098 44.6743 44.1941Q44.6438 44.2901 44.607 44.3839Q44.5701 44.4777 44.527 44.5688Q44.4839 44.6599 44.4348 44.7479Q44.3857 44.8359 44.3308 44.9204Q44.2759 45.0049 44.2155 45.0856Q44.1551 45.1662 44.0893 45.2426Q44.0236 45.319 43.9529 45.3908Q43.8822 45.4626 43.8068 45.5295Q43.7315 45.5964 43.6518 45.6581Q43.5721 45.7198 43.4885 45.776Q43.4048 45.8322 43.3176 45.8827Q43.2304 45.9331 43.1399 45.9776Q43.0495 46.0221 42.9563 46.0604Q42.8631 46.0988 42.7676 46.1307Q42.672 46.1627 42.5745 46.1882Q42.477 46.2137 42.378 46.2326Q42.279 46.2515 42.179 46.2637Q42.079 46.2759 41.9783 46.2814Q41.8777 46.2868 41.7769 46.2855Q41.6762 46.2842 41.5757 46.2761Q41.4753 46.2681 41.3756 46.2533Q41.2759 46.2385 41.1775 46.217Q41.079 46.1956 40.9822 46.1676Q40.8854 46.1396 40.7907 46.1051L4.69389 32.9748Q4.60313 32.9418 4.51469 32.903Q4.42625 32.8643 4.34049 32.8199Q4.25473 32.7755 4.172 32.7257Q4.08927 32.6759 4.00992 32.6208Q3.93057 32.5658 3.85492 32.5058Q3.77927 32.4457 3.70764 32.381Q3.63602 32.3162 3.5687 32.247Q3.50139 32.1777 3.43867 32.1043Q3.37595 32.0308 3.31808 31.9535Q3.26022 31.8762 3.20745 31.7953Q3.15468 31.7145 3.10722 31.6304Q3.05976 31.5463 3.01781 31.4593Q2.97586 31.3723 2.93959 31.2828Q2.90332 31.1933 2.87289 31.1017Q2.84245 31.01 2.81798 30.9166Q2.7935 30.8232 2.77509 30.7284Q2.75667 30.6336 2.7444 30.5378Q2.73212 30.442 2.72603 30.3456Q2.71994 30.2492 2.72006 30.1527Q2.72019 30.0561 2.72652 29.9597Q2.73286 29.8634 2.74538 29.7676Q2.7579 29.6719 2.77656 29.5771Q2.79521 29.4824 2.81993 29.389Q2.84464 29.2957 2.87531 29.2041Q2.90598 29.1125 2.94247 29.0231Q2.97897 28.9337 3.02114 28.8468Q3.06331 28.76 3.11099 28.676Q3.15866 28.592 3.21164 28.5113Q3.26462 28.4305 3.32268 28.3534Q3.38074 28.2762 3.44365 28.2029Q3.50655 28.1296 3.57404 28.0606Q3.64154 27.9915 3.71333 27.9269L30.9876 3.39096Q31.0599 3.32596 31.1362 3.26578Q31.2125 3.20559 31.2926 3.15047Q31.3726 3.09536 31.456 3.04554Q31.5395 2.99572 31.626 2.95141Q31.7125 2.90709 31.8017 2.86847Q31.8909 2.82986 31.9824 2.79709Q32.0739 2.76433 32.1673 2.73756Q32.2607 2.71079 32.3557 2.69012Q32.4506 2.66946 32.5468 2.65499Q32.6429 2.64051 32.7397 2.63229Q32.8365 2.62407 32.9337 2.62214Q33.0309 2.6202 33.128 2.62457Q33.2251 2.62893 33.3217 2.63957Q33.4183 2.65021 33.514 2.66708Q33.6097 2.68395 33.7041 2.70698Q33.7985 2.73001 33.8913 2.75911Q33.984 2.78821 34.0746 2.82325Q34.1653 2.85829 34.2535 2.89913Q34.3417 2.93996 34.427 2.98643Q34.5124 3.03289 34.5946 3.08478Q34.6767 3.13667 34.7554 3.19377Q34.834 3.25087 34.9088 3.31294Q34.9836 3.37502 35.0542 3.4418Q35.1248 3.50859 35.1909 3.5798Q35.2571 3.65102 35.3185 3.72637Q35.3798 3.80172 35.4362 3.88089Q35.4926 3.96005 35.5437 4.0427Q35.5949 4.12535 35.6405 4.21114Q35.6862 4.29692 35.7262 4.38549Q35.7663 4.47405 35.8005 4.56502Q35.8347 4.65599 35.8629 4.74898Q35.8912 4.84198 35.9133 4.9366L35.9133 4.9366Z" transform="matrix(-0.65605897 -0.7547096 0.7547096 -0.65605897 30.17871 66.207275)" id="Rectangle" fill="#FFB046" fill-rule="evenodd" stroke="none" />
  </g>
</svg>